<svg xmlns="http://www.w3.org/2000/svg" viewBox="0 0 24 24"><g fill="none" stroke="#393939" stroke-linecap="round" stroke-linejoin="round" data-name="Reply All Message" class="colorStroke303c42 svgStroke"><path d="M12.5 11c2.81 0 4 .86 4 2 0-2.73-1.19-5-4-5V6.41a.4.4 0 0 0-.39-.41.37.37 0 0 0-.26.11c-.79.77-2.48 2.33-3.27 3.16a.39.39 0 0 0 0 .47c.79.83 2.48 2.39 3.27 3.16a.37.37 0 0 0 .26.11.4.4 0 0 0 .39-.41Z" data-name="&amp;lt;Path&amp;gt;" fill="#000000" class="color000000 svgShape"></path><path d="M10 6S7.36 8.44 6.58 9.27a.39.39 0 0 0 0 .47C7.36 10.56 10 13 10 13" data-name="&amp;lt;Path&amp;gt;" fill="#000000" class="color000000 svgShape"></path><path d="M21 1.5H3A1.5 1.5 0 0 0 1.5 3v19.5l5-5H21a1.5 1.5 0 0 0 1.5-1.5V3A1.5 1.5 0 0 0 21 1.5Z" fill="#000000" class="color000000 svgShape"></path></g></svg>