<svg xmlns="http://www.w3.org/2000/svg" enable-background="new 0 0 512 512" viewBox="0 0 512 512"><path fill="#cdd5de" d="M290.334,235.887L62.78,8.331c-11.108-11.108-29.118-11.108-40.227,0
		c-11.108,11.108-11.108,29.118,0,40.227L229.994,256L22.554,463.442c-11.108,11.108-11.108,29.118,0,40.227
		C28.108,509.223,35.387,512,42.667,512s14.559-2.777,20.113-8.331l227.554-227.556
		C301.442,265.005,301.442,246.995,290.334,235.887z" class="color21397a svgShape"></path><path fill="#cdd5de" d="M489.446,235.887L261.893,8.331c-11.109-11.108-29.119-11.108-40.227,0
		c-11.108,11.108-11.108,29.118,0,40.227L429.107,256L221.666,463.442c-11.108,11.108-11.108,29.118,0,40.227
		C227.22,509.223,234.5,512,241.779,512s14.559-2.777,20.113-8.331l227.554-227.556
		C500.555,265.005,500.555,246.995,489.446,235.887z" class="color21397a svgShape"></path></svg>