<svg width="18" height="20" viewBox="0 0 18 20" fill="none" xmlns="http://www.w3.org/2000/svg">
<path d="M17.125 20C16.9583 20 16.7917 19.9167 16.6667 19.8333L9 12.0833L1.33333 19.8333C1.16667 20 0.875 20.0833 0.666667 19.9583C0.416667 19.875 0.25 19.625 0.25 19.375V0.625C0.25 0.291667 0.541667 0 0.875 0H17.125C17.4583 0 17.75 0.291667 17.75 0.625V19.375C17.75 19.625 17.5833 19.875 17.375 19.9583C17.2917 20 17.2083 20 17.125 20ZM9 10.8333C9.33333 10.8333 9.66667 10.9583 9.91667 11.2083L16.5 17.875V1.25H1.5V17.875L8.08333 11.2083C8.33333 10.9583 8.66667 10.8333 9 10.8333Z" fill="#262626"/>
</svg>
